<mxfile host="app.diagrams.net" agent="Mozilla/5.0 (X11; Linux x86_64; rv:144.0) Gecko/20100101 Firefox/144.0" version="28.2.7">
  <diagram name="Page-1" id="sbpzsV8GzJn22SMmTCmP">
    <mxGraphModel dx="786" dy="1117" grid="1" gridSize="10" guides="1" tooltips="1" connect="1" arrows="1" fold="1" page="1" pageScale="1" pageWidth="850" pageHeight="1100" math="0" shadow="0">
      <root>
        <mxCell id="0" />
        <mxCell id="1" parent="0" />
        <mxCell id="Blgk3cnpNj6Ua3f2sbmQ-20" value="" style="rounded=1;whiteSpace=wrap;html=1;" vertex="1" parent="1">
          <mxGeometry x="1020" y="270" width="520" height="160" as="geometry" />
        </mxCell>
        <mxCell id="Blgk3cnpNj6Ua3f2sbmQ-3" value="" style="rounded=1;whiteSpace=wrap;html=1;" vertex="1" parent="1">
          <mxGeometry x="350" y="270" width="650" height="160" as="geometry" />
        </mxCell>
        <mxCell id="Blgk3cnpNj6Ua3f2sbmQ-1" value="ArtObject" style="html=1;whiteSpace=wrap;" vertex="1" parent="1">
          <mxGeometry x="170" y="400" width="120" height="50" as="geometry" />
        </mxCell>
        <mxCell id="Blgk3cnpNj6Ua3f2sbmQ-15" style="edgeStyle=orthogonalEdgeStyle;rounded=0;orthogonalLoop=1;jettySize=auto;html=1;exitX=1;exitY=0.5;exitDx=0;exitDy=0;entryX=0;entryY=0.5;entryDx=0;entryDy=0;" edge="1" parent="1" source="Blgk3cnpNj6Ua3f2sbmQ-6" target="Blgk3cnpNj6Ua3f2sbmQ-7">
          <mxGeometry relative="1" as="geometry" />
        </mxCell>
        <mxCell id="Blgk3cnpNj6Ua3f2sbmQ-6" value="&lt;div&gt;«leaf»&lt;/div&gt;&lt;div&gt;&lt;b&gt;RAW&lt;/b&gt;&lt;/div&gt;&lt;b&gt;ImageReader&lt;/b&gt;" style="html=1;whiteSpace=wrap;fillColor=#dae8fc;strokeColor=#6c8ebf;" vertex="1" parent="1">
          <mxGeometry x="360" y="370" width="110" height="50" as="geometry" />
        </mxCell>
        <mxCell id="Blgk3cnpNj6Ua3f2sbmQ-17" style="edgeStyle=orthogonalEdgeStyle;rounded=0;orthogonalLoop=1;jettySize=auto;html=1;exitX=1;exitY=0.5;exitDx=0;exitDy=0;entryX=0;entryY=0.5;entryDx=0;entryDy=0;" edge="1" parent="1" source="Blgk3cnpNj6Ua3f2sbmQ-7" target="Blgk3cnpNj6Ua3f2sbmQ-10">
          <mxGeometry relative="1" as="geometry" />
        </mxCell>
        <mxCell id="Blgk3cnpNj6Ua3f2sbmQ-7" value="&lt;div&gt;«leaf»&lt;/div&gt;&lt;b&gt;Bit Depth Scaling&lt;/b&gt;" style="html=1;whiteSpace=wrap;fillColor=#dae8fc;strokeColor=#6c8ebf;" vertex="1" parent="1">
          <mxGeometry x="490" y="370" width="110" height="50" as="geometry" />
        </mxCell>
        <mxCell id="Blgk3cnpNj6Ua3f2sbmQ-8" value="CommunicationObj" style="html=1;whiteSpace=wrap;" vertex="1" parent="1">
          <mxGeometry x="170" y="340" width="120" height="50" as="geometry" />
        </mxCell>
        <mxCell id="Blgk3cnpNj6Ua3f2sbmQ-9" value="&lt;div&gt;«composite»&lt;/div&gt;&lt;b&gt;PreProcessing&lt;/b&gt;" style="html=1;whiteSpace=wrap;fillColor=#d5e8d4;strokeColor=#82b366;" vertex="1" parent="1">
          <mxGeometry x="620" y="280" width="110" height="50" as="geometry" />
        </mxCell>
        <mxCell id="Blgk3cnpNj6Ua3f2sbmQ-18" style="edgeStyle=orthogonalEdgeStyle;rounded=0;orthogonalLoop=1;jettySize=auto;html=1;exitX=1;exitY=0.5;exitDx=0;exitDy=0;entryX=0;entryY=0.5;entryDx=0;entryDy=0;" edge="1" parent="1" source="Blgk3cnpNj6Ua3f2sbmQ-10" target="Blgk3cnpNj6Ua3f2sbmQ-12">
          <mxGeometry relative="1" as="geometry" />
        </mxCell>
        <mxCell id="Blgk3cnpNj6Ua3f2sbmQ-10" value="&lt;div&gt;«leaf»&lt;/div&gt;&lt;b&gt;Flat Fielding&lt;/b&gt;" style="html=1;whiteSpace=wrap;fillColor=#dae8fc;strokeColor=#6c8ebf;" vertex="1" parent="1">
          <mxGeometry x="620" y="370" width="110" height="50" as="geometry" />
        </mxCell>
        <mxCell id="Blgk3cnpNj6Ua3f2sbmQ-19" style="edgeStyle=orthogonalEdgeStyle;rounded=0;orthogonalLoop=1;jettySize=auto;html=1;exitX=1;exitY=0.5;exitDx=0;exitDy=0;entryX=0;entryY=0.5;entryDx=0;entryDy=0;" edge="1" parent="1" source="Blgk3cnpNj6Ua3f2sbmQ-12" target="Blgk3cnpNj6Ua3f2sbmQ-13">
          <mxGeometry relative="1" as="geometry" />
        </mxCell>
        <mxCell id="Blgk3cnpNj6Ua3f2sbmQ-12" value="&lt;div&gt;«leaf»&lt;/div&gt;&lt;b&gt;Noise Reduction&lt;/b&gt;" style="html=1;whiteSpace=wrap;fillColor=#dae8fc;strokeColor=#6c8ebf;" vertex="1" parent="1">
          <mxGeometry x="750" y="370" width="110" height="50" as="geometry" />
        </mxCell>
        <mxCell id="Blgk3cnpNj6Ua3f2sbmQ-31" style="edgeStyle=orthogonalEdgeStyle;rounded=0;orthogonalLoop=1;jettySize=auto;html=1;exitX=1;exitY=0.5;exitDx=0;exitDy=0;entryX=0;entryY=0.5;entryDx=0;entryDy=0;" edge="1" parent="1" source="Blgk3cnpNj6Ua3f2sbmQ-13" target="Blgk3cnpNj6Ua3f2sbmQ-22">
          <mxGeometry relative="1" as="geometry">
            <mxPoint x="1010" y="470" as="targetPoint" />
          </mxGeometry>
        </mxCell>
        <mxCell id="Blgk3cnpNj6Ua3f2sbmQ-13" value="&lt;div&gt;«leaf»&lt;/div&gt;&lt;b&gt;Registration&lt;/b&gt;" style="html=1;whiteSpace=wrap;fillColor=#dae8fc;strokeColor=#6c8ebf;" vertex="1" parent="1">
          <mxGeometry x="880" y="370" width="110" height="50" as="geometry" />
        </mxCell>
        <mxCell id="Blgk3cnpNj6Ua3f2sbmQ-16" style="edgeStyle=orthogonalEdgeStyle;rounded=0;orthogonalLoop=1;jettySize=auto;html=1;exitX=1;exitY=0.5;exitDx=0;exitDy=0;entryX=0;entryY=0.5;entryDx=0;entryDy=0;" edge="1" parent="1" source="Blgk3cnpNj6Ua3f2sbmQ-14" target="Blgk3cnpNj6Ua3f2sbmQ-6">
          <mxGeometry relative="1" as="geometry" />
        </mxCell>
        <mxCell id="Blgk3cnpNj6Ua3f2sbmQ-14" value="&lt;div&gt;Passed&lt;/div&gt;&lt;div&gt;Through&lt;/div&gt;" style="text;html=1;whiteSpace=wrap;strokeColor=none;fillColor=none;align=center;verticalAlign=middle;rounded=0;" vertex="1" parent="1">
          <mxGeometry x="290" y="380" width="60" height="30" as="geometry" />
        </mxCell>
        <mxCell id="Blgk3cnpNj6Ua3f2sbmQ-21" style="edgeStyle=orthogonalEdgeStyle;rounded=0;orthogonalLoop=1;jettySize=auto;html=1;exitX=1;exitY=0.5;exitDx=0;exitDy=0;entryX=0;entryY=0.5;entryDx=0;entryDy=0;" edge="1" parent="1" source="Blgk3cnpNj6Ua3f2sbmQ-22" target="Blgk3cnpNj6Ua3f2sbmQ-24">
          <mxGeometry relative="1" as="geometry" />
        </mxCell>
        <mxCell id="Blgk3cnpNj6Ua3f2sbmQ-22" value="&lt;div&gt;«leaf»&lt;/div&gt;&lt;div&gt;&lt;b&gt;ColorManaged&lt;/b&gt;&lt;/div&gt;&lt;div&gt;&lt;b&gt;Calibration&lt;/b&gt;&lt;/div&gt;" style="html=1;whiteSpace=wrap;fillColor=#dae8fc;strokeColor=#6c8ebf;" vertex="1" parent="1">
          <mxGeometry x="1030" y="370" width="110" height="50" as="geometry" />
        </mxCell>
        <mxCell id="Blgk3cnpNj6Ua3f2sbmQ-23" style="edgeStyle=orthogonalEdgeStyle;rounded=0;orthogonalLoop=1;jettySize=auto;html=1;exitX=1;exitY=0.5;exitDx=0;exitDy=0;entryX=0;entryY=0.5;entryDx=0;entryDy=0;" edge="1" parent="1" source="Blgk3cnpNj6Ua3f2sbmQ-24" target="Blgk3cnpNj6Ua3f2sbmQ-27">
          <mxGeometry relative="1" as="geometry" />
        </mxCell>
        <mxCell id="Blgk3cnpNj6Ua3f2sbmQ-24" value="&lt;div&gt;«leaf»&lt;/div&gt;&lt;div&gt;&lt;b&gt;Spectral&lt;/b&gt;&lt;/div&gt;&lt;div&gt;&lt;b&gt;Calibration&lt;/b&gt;&lt;/div&gt;" style="html=1;whiteSpace=wrap;fillColor=#dae8fc;strokeColor=#6c8ebf;" vertex="1" parent="1">
          <mxGeometry x="1160" y="370" width="110" height="50" as="geometry" />
        </mxCell>
        <mxCell id="Blgk3cnpNj6Ua3f2sbmQ-25" value="&lt;div&gt;«composite»&lt;/div&gt;&lt;b&gt;Calibration&lt;/b&gt;" style="html=1;whiteSpace=wrap;fillColor=#d5e8d4;strokeColor=#82b366;" vertex="1" parent="1">
          <mxGeometry x="1220" y="280" width="110" height="50" as="geometry" />
        </mxCell>
        <mxCell id="Blgk3cnpNj6Ua3f2sbmQ-26" style="edgeStyle=orthogonalEdgeStyle;rounded=0;orthogonalLoop=1;jettySize=auto;html=1;exitX=1;exitY=0.5;exitDx=0;exitDy=0;entryX=0;entryY=0.5;entryDx=0;entryDy=0;" edge="1" parent="1" source="Blgk3cnpNj6Ua3f2sbmQ-27" target="Blgk3cnpNj6Ua3f2sbmQ-29">
          <mxGeometry relative="1" as="geometry" />
        </mxCell>
        <mxCell id="Blgk3cnpNj6Ua3f2sbmQ-27" value="&lt;div&gt;«leaf»&lt;/div&gt;&lt;b&gt;Verification&lt;/b&gt;" style="html=1;whiteSpace=wrap;fillColor=#dae8fc;strokeColor=#6c8ebf;" vertex="1" parent="1">
          <mxGeometry x="1290" y="370" width="110" height="50" as="geometry" />
        </mxCell>
        <mxCell id="Blgk3cnpNj6Ua3f2sbmQ-29" value="&lt;div&gt;«leaf»&lt;/div&gt;&lt;div&gt;&lt;b&gt;Results&lt;/b&gt;&lt;/div&gt;&lt;div&gt;&lt;b&gt;Processing&lt;/b&gt;&lt;/div&gt;" style="html=1;whiteSpace=wrap;fillColor=#dae8fc;strokeColor=#6c8ebf;" vertex="1" parent="1">
          <mxGeometry x="1420" y="370" width="110" height="50" as="geometry" />
        </mxCell>
        <mxCell id="Blgk3cnpNj6Ua3f2sbmQ-32" value="&lt;div&gt;«composite»&lt;/div&gt;&lt;b&gt;Image Processing&lt;/b&gt;" style="html=1;whiteSpace=wrap;fillColor=#d5e8d4;strokeColor=#82b366;" vertex="1" parent="1">
          <mxGeometry x="960" y="190" width="110" height="50" as="geometry" />
        </mxCell>
      </root>
    </mxGraphModel>
  </diagram>
</mxfile>
